<svg id="visual" viewBox="0 0 900 600" width="900" height="600" xmlns="http://www.w3.org/2000/svg" xmlns:xlink="http://www.w3.org/1999/xlink" version="1.1"><rect x="0" y="0" width="900" height="600" fill="#FFFFFF"></rect><defs><linearGradient id="grad1_0" x1="33.3%" y1="0%" x2="100%" y2="100%"><stop offset="20%" stop-color="#888277" stop-opacity="1"></stop><stop offset="80%" stop-color="#888277" stop-opacity="1"></stop></linearGradient></defs><defs><linearGradient id="grad1_1" x1="33.3%" y1="0%" x2="100%" y2="100%"><stop offset="20%" stop-color="#888277" stop-opacity="1"></stop><stop offset="80%" stop-color="#a5a097" stop-opacity="1"></stop></linearGradient></defs><defs><linearGradient id="grad1_2" x1="33.3%" y1="0%" x2="100%" y2="100%"><stop offset="20%" stop-color="#c2bfb9" stop-opacity="1"></stop><stop offset="80%" stop-color="#a5a097" stop-opacity="1"></stop></linearGradient></defs><defs><linearGradient id="grad1_3" x1="33.3%" y1="0%" x2="100%" y2="100%"><stop offset="20%" stop-color="#c2bfb9" stop-opacity="1"></stop><stop offset="80%" stop-color="#e0dedb" stop-opacity="1"></stop></linearGradient></defs><defs><linearGradient id="grad1_4" x1="33.3%" y1="0%" x2="100%" y2="100%"><stop offset="20%" stop-color="#ffffff" stop-opacity="1"></stop><stop offset="80%" stop-color="#e0dedb" stop-opacity="1"></stop></linearGradient></defs><defs><linearGradient id="grad2_0" x1="0%" y1="0%" x2="66.7%" y2="100%"><stop offset="20%" stop-color="#888277" stop-opacity="1"></stop><stop offset="80%" stop-color="#888277" stop-opacity="1"></stop></linearGradient></defs><defs><linearGradient id="grad2_1" x1="0%" y1="0%" x2="66.7%" y2="100%"><stop offset="20%" stop-color="#a5a097" stop-opacity="1"></stop><stop offset="80%" stop-color="#888277" stop-opacity="1"></stop></linearGradient></defs><defs><linearGradient id="grad2_2" x1="0%" y1="0%" x2="66.7%" y2="100%"><stop offset="20%" stop-color="#a5a097" stop-opacity="1"></stop><stop offset="80%" stop-color="#c2bfb9" stop-opacity="1"></stop></linearGradient></defs><defs><linearGradient id="grad2_3" x1="0%" y1="0%" x2="66.7%" y2="100%"><stop offset="20%" stop-color="#e0dedb" stop-opacity="1"></stop><stop offset="80%" stop-color="#c2bfb9" stop-opacity="1"></stop></linearGradient></defs><defs><linearGradient id="grad2_4" x1="0%" y1="0%" x2="66.7%" y2="100%"><stop offset="20%" stop-color="#e0dedb" stop-opacity="1"></stop><stop offset="80%" stop-color="#ffffff" stop-opacity="1"></stop></linearGradient></defs><g transform="translate(900, 0)"><path d="M0 351.5C-52.6 353.1 -105.2 354.6 -134.5 324.8C-163.8 294.9 -169.8 233.7 -199.4 199.4C-229 165.1 -282.1 157.7 -311.3 129C-340.6 100.2 -346.1 50.1 -351.5 0L0 0Z" fill="#efefed"></path><path d="M0 281.2C-42.1 282.5 -84.2 283.7 -107.6 259.8C-131.1 236 -135.9 187 -159.5 159.5C-183.2 132.1 -225.7 126.2 -249.1 103.2C-272.5 80.2 -276.9 40.1 -281.2 0L0 0Z" fill="#d1ceca"></path><path d="M0 210.9C-31.6 211.8 -63.1 212.8 -80.7 194.9C-98.3 177 -101.9 140.2 -119.6 119.6C-137.4 99.1 -169.2 94.6 -186.8 77.4C-204.4 60.1 -207.7 30.1 -210.9 0L0 0Z" fill="#b3afa8"></path><path d="M0 140.6C-21 141.2 -42.1 141.8 -53.8 129.9C-65.5 118 -67.9 93.5 -79.8 79.8C-91.6 66 -112.8 63.1 -124.5 51.6C-136.3 40.1 -138.4 20 -140.6 0L0 0Z" fill="#969187"></path><path d="M0 70.3C-10.5 70.6 -21 70.9 -26.9 65C-32.8 59 -34 46.7 -39.9 39.9C-45.8 33 -56.4 31.5 -62.3 25.8C-68.1 20 -69.2 10 -70.3 0L0 0Z" fill="#888277"></path></g><g transform="translate(0, 600)"><path d="M0 -351.5C50.9 -352.1 101.8 -352.6 134.5 -324.8C167.3 -297 181.9 -240.8 202.9 -202.9C224 -165.1 251.3 -145.6 277.2 -114.8C303 -84 327.3 -42 351.5 0L0 0Z" fill="#efefed"></path><path d="M0 -281.2C40.7 -281.7 81.4 -282.1 107.6 -259.8C133.8 -237.6 145.5 -192.6 162.4 -162.4C179.2 -132.1 201.1 -116.5 221.7 -91.8C242.4 -67.2 261.8 -33.6 281.2 0L0 0Z" fill="#d1ceca"></path><path d="M0 -210.9C30.5 -211.2 61.1 -211.6 80.7 -194.9C100.4 -178.2 109.2 -144.5 121.8 -121.8C134.4 -99.1 150.8 -87.3 166.3 -68.9C181.8 -50.4 196.4 -25.2 210.9 0L0 0Z" fill="#b3afa8"></path><path d="M0 -140.6C20.4 -140.8 40.7 -141 53.8 -129.9C66.9 -118.8 72.8 -96.3 81.2 -81.2C89.6 -66 100.5 -58.2 110.9 -45.9C121.2 -33.6 130.9 -16.8 140.6 0L0 0Z" fill="#969187"></path><path d="M0 -70.3C10.2 -70.4 20.4 -70.5 26.9 -65C33.5 -59.4 36.4 -48.2 40.6 -40.6C44.8 -33 50.3 -29.1 55.4 -23C60.6 -16.8 65.5 -8.4 70.3 0L0 0Z" fill="#888277"></path></g></svg>