<svg id="visual" viewBox="0 0 900 600" width="900" height="600" xmlns="http://www.w3.org/2000/svg" xmlns:xlink="http://www.w3.org/1999/xlink" version="1.1"><rect x="0" y="0" width="900" height="600" fill="#FFFFFF"></rect><defs><linearGradient id="grad1_0" x1="33.3%" y1="0%" x2="100%" y2="100%"><stop offset="20%" stop-color="#594ff7" stop-opacity="1"></stop><stop offset="80%" stop-color="#594ff7" stop-opacity="1"></stop></linearGradient></defs><defs><linearGradient id="grad1_1" x1="33.3%" y1="0%" x2="100%" y2="100%"><stop offset="20%" stop-color="#594ff7" stop-opacity="1"></stop><stop offset="80%" stop-color="#9f88fc" stop-opacity="1"></stop></linearGradient></defs><defs><linearGradient id="grad1_2" x1="33.3%" y1="0%" x2="100%" y2="100%"><stop offset="20%" stop-color="#d3c2fe" stop-opacity="1"></stop><stop offset="80%" stop-color="#9f88fc" stop-opacity="1"></stop></linearGradient></defs><defs><linearGradient id="grad1_3" x1="33.3%" y1="0%" x2="100%" y2="100%"><stop offset="20%" stop-color="#d3c2fe" stop-opacity="1"></stop><stop offset="80%" stop-color="#ffffff" stop-opacity="1"></stop></linearGradient></defs><defs><linearGradient id="grad2_0" x1="0%" y1="0%" x2="66.7%" y2="100%"><stop offset="20%" stop-color="#594ff7" stop-opacity="1"></stop><stop offset="80%" stop-color="#594ff7" stop-opacity="1"></stop></linearGradient></defs><defs><linearGradient id="grad2_1" x1="0%" y1="0%" x2="66.7%" y2="100%"><stop offset="20%" stop-color="#9f88fc" stop-opacity="1"></stop><stop offset="80%" stop-color="#594ff7" stop-opacity="1"></stop></linearGradient></defs><defs><linearGradient id="grad2_2" x1="0%" y1="0%" x2="66.7%" y2="100%"><stop offset="20%" stop-color="#9f88fc" stop-opacity="1"></stop><stop offset="80%" stop-color="#d3c2fe" stop-opacity="1"></stop></linearGradient></defs><defs><linearGradient id="grad2_3" x1="0%" y1="0%" x2="66.7%" y2="100%"><stop offset="20%" stop-color="#ffffff" stop-opacity="1"></stop><stop offset="80%" stop-color="#d3c2fe" stop-opacity="1"></stop></linearGradient></defs><g transform="translate(900, 0)"><path d="M0 297.5C-22.7 281.4 -45.3 265.4 -69.1 257.9C-92.9 250.4 -117.7 251.5 -141.5 245.1C-165.3 238.7 -188.1 224.8 -207.9 207.9C-227.7 191 -244.6 171 -257.6 148.7C-270.7 126.4 -279.9 101.8 -285.9 76.6C-291.9 51.4 -294.7 25.7 -297.5 0L0 0Z" fill="#e9e0ff"></path><path d="M0 223.1C-17 211.1 -34 199 -51.8 193.4C-69.6 187.8 -88.3 188.6 -106.1 183.8C-124 179 -141.1 168.6 -155.9 155.9C-170.8 143.2 -183.4 128.3 -193.2 111.5C-203 94.8 -209.9 76.3 -214.4 57.5C-218.9 38.6 -221 19.3 -223.1 0L0 0Z" fill="#baa5fd"></path><path d="M0 148.7C-11.3 140.7 -22.7 132.7 -34.6 129C-46.4 125.2 -58.8 125.7 -70.7 122.5C-82.7 119.3 -94 112.4 -103.9 103.9C-113.9 95.5 -122.3 85.5 -128.8 74.4C-135.3 63.2 -140 50.9 -143 38.3C-146 25.7 -147.3 12.9 -148.7 0L0 0Z" fill="#806bf9"></path><path d="M0 74.4C-5.7 70.4 -11.3 66.3 -17.3 64.5C-23.2 62.6 -29.4 62.9 -35.4 61.3C-41.3 59.7 -47 56.2 -52 52C-56.9 47.7 -61.1 42.8 -64.4 37.2C-67.7 31.6 -70 25.4 -71.5 19.2C-73 12.9 -73.7 6.4 -74.4 0L0 0Z" fill="#594ff7"></path></g><g transform="translate(0, 600)"><path d="M0 -297.5C21.3 -279.3 42.6 -261.1 69.1 -257.9C95.6 -254.7 127.2 -266.5 148.7 -257.6C170.2 -248.7 181.6 -219.2 198 -198C214.4 -176.7 235.8 -163.7 250.3 -144.5C264.8 -125.3 272.4 -99.9 279.2 -74.8C285.9 -49.7 291.7 -24.8 297.5 0L0 0Z" fill="#e9e0ff"></path><path d="M0 -223.1C16 -209.5 32 -195.8 51.8 -193.4C71.7 -191 95.4 -199.9 111.5 -193.2C127.7 -186.6 136.2 -164.4 148.5 -148.5C160.8 -132.5 176.8 -122.8 187.7 -108.4C198.6 -94 204.3 -74.9 209.4 -56.1C214.4 -37.3 218.7 -18.6 223.1 0L0 0Z" fill="#baa5fd"></path><path d="M0 -148.7C10.7 -139.6 21.3 -130.6 34.6 -129C47.8 -127.3 63.6 -133.2 74.4 -128.8C85.1 -124.4 90.8 -109.6 99 -99C107.2 -88.4 117.9 -81.9 125.1 -72.3C132.4 -62.6 136.2 -50 139.6 -37.4C142.9 -24.8 145.8 -12.4 148.7 0L0 0Z" fill="#806bf9"></path><path d="M0 -74.4C5.3 -69.8 10.7 -65.3 17.3 -64.5C23.9 -63.7 31.8 -66.6 37.2 -64.4C42.6 -62.2 45.4 -54.8 49.5 -49.5C53.6 -44.2 58.9 -40.9 62.6 -36.1C66.2 -31.3 68.1 -25 69.8 -18.7C71.5 -12.4 72.9 -6.2 74.4 0L0 0Z" fill="#594ff7"></path></g></svg>