<svg id="visual" viewBox="0 0 900 600" width="900" height="600" xmlns="http://www.w3.org/2000/svg" xmlns:xlink="http://www.w3.org/1999/xlink" version="1.1"><rect x="0" y="0" width="900" height="600" fill="#FFFFFF"></rect><defs><linearGradient id="grad1_0" x1="33.3%" y1="0%" x2="100%" y2="100%"><stop offset="20%" stop-color="#4facf7" stop-opacity="1"></stop><stop offset="80%" stop-color="#4facf7" stop-opacity="1"></stop></linearGradient></defs><defs><linearGradient id="grad1_1" x1="33.3%" y1="0%" x2="100%" y2="100%"><stop offset="20%" stop-color="#4facf7" stop-opacity="1"></stop><stop offset="80%" stop-color="#b4d4fc" stop-opacity="1"></stop></linearGradient></defs><defs><linearGradient id="grad1_2" x1="33.3%" y1="0%" x2="100%" y2="100%"><stop offset="20%" stop-color="#ffffff" stop-opacity="1"></stop><stop offset="80%" stop-color="#b4d4fc" stop-opacity="1"></stop></linearGradient></defs><defs><linearGradient id="grad2_0" x1="0%" y1="0%" x2="66.7%" y2="100%"><stop offset="20%" stop-color="#4facf7" stop-opacity="1"></stop><stop offset="80%" stop-color="#4facf7" stop-opacity="1"></stop></linearGradient></defs><defs><linearGradient id="grad2_1" x1="0%" y1="0%" x2="66.7%" y2="100%"><stop offset="20%" stop-color="#b4d4fc" stop-opacity="1"></stop><stop offset="80%" stop-color="#4facf7" stop-opacity="1"></stop></linearGradient></defs><defs><linearGradient id="grad2_2" x1="0%" y1="0%" x2="66.7%" y2="100%"><stop offset="20%" stop-color="#b4d4fc" stop-opacity="1"></stop><stop offset="80%" stop-color="#ffffff" stop-opacity="1"></stop></linearGradient></defs><g transform="translate(900, 0)"><path d="M0 297.5C-22.1 281.9 -44.2 266.3 -70.1 261.8C-96.1 257.2 -126 263.6 -146 252.9C-166 242.2 -176.2 214.3 -195.9 195.9C-215.5 177.4 -244.6 168.3 -257.6 148.7C-270.6 129.2 -267.5 99.3 -271.4 72.7C-275.4 46.2 -286.4 23.1 -297.5 0L0 0Z" fill="#dbe9fd"></path><path d="M0 198.3C-14.7 187.9 -29.4 177.6 -46.8 174.5C-64.1 171.5 -84 175.7 -97.3 168.6C-110.7 161.4 -117.5 142.9 -130.6 130.6C-143.7 118.3 -163.1 112.2 -171.7 99.2C-180.4 86.1 -178.3 66.2 -181 48.5C-183.6 30.8 -190.9 15.4 -198.3 0L0 0Z" fill="#88c0f9"></path><path d="M0 99.2C-7.4 94 -14.7 88.8 -23.4 87.3C-32 85.7 -42 87.9 -48.7 84.3C-55.3 80.7 -58.7 71.4 -65.3 65.3C-71.8 59.1 -81.5 56.1 -85.9 49.6C-90.2 43.1 -89.2 33.1 -90.5 24.2C-91.8 15.4 -95.5 7.7 -99.2 0L0 0Z" fill="#4facf7"></path></g><g transform="translate(0, 600)"><path d="M0 -297.5C22.3 -281.3 44.7 -265.1 69.1 -257.9C93.5 -250.7 120 -252.6 139.5 -241.6C159 -230.6 171.4 -206.8 189.5 -189.5C207.6 -172.2 231.2 -161.5 249.4 -144C267.6 -126.5 280.2 -102.1 287.3 -77C294.4 -51.9 295.9 -25.9 297.5 0L0 0Z" fill="#dbe9fd"></path><path d="M0 -198.3C14.9 -187.5 29.8 -176.7 46.1 -171.9C62.3 -167.2 80 -168.4 93 -161.1C106 -153.8 114.3 -137.9 126.3 -126.3C138.4 -114.8 154.2 -107.7 166.3 -96C178.4 -84.3 186.8 -68.1 191.5 -51.3C196.3 -34.6 197.3 -17.3 198.3 0L0 0Z" fill="#88c0f9"></path><path d="M0 -99.2C7.4 -93.8 14.9 -88.4 23 -86C31.2 -83.6 40 -84.2 46.5 -80.5C53 -76.9 57.1 -68.9 63.2 -63.2C69.2 -57.4 77.1 -53.8 83.1 -48C89.2 -42.2 93.4 -34 95.8 -25.7C98.1 -17.3 98.6 -8.6 99.2 0L0 0Z" fill="#4facf7"></path></g></svg>