<svg id="visual" viewBox="0 0 900 600" width="900" height="600" xmlns="http://www.w3.org/2000/svg" xmlns:xlink="http://www.w3.org/1999/xlink" version="1.1"><rect x="0" y="0" width="900" height="600" fill="#ffffff"></rect><path d="M0 261L21.5 250.8C43 240.7 86 220.3 128.8 209.5C171.7 198.7 214.3 197.3 257.2 192.2C300 187 343 178 385.8 187C428.7 196 471.3 223 514.2 227.3C557 231.7 600 213.3 642.8 195C685.7 176.7 728.3 158.3 771.2 149.5C814 140.7 857 141.3 878.5 141.7L900 142L900 0L878.5 0C857 0 814 0 771.2 0C728.3 0 685.7 0 642.8 0C600 0 557 0 514.2 0C471.3 0 428.7 0 385.8 0C343 0 300 0 257.2 0C214.3 0 171.7 0 128.8 0C86 0 43 0 21.5 0L0 0Z" fill="#ffffff"></path><path d="M0 209L21.5 199C43 189 86 169 128.8 173C171.7 177 214.3 205 257.2 218.8C300 232.7 343 232.3 385.8 217.5C428.7 202.7 471.3 173.3 514.2 160.5C557 147.7 600 151.3 642.8 154.5C685.7 157.7 728.3 160.3 771.2 159.8C814 159.3 857 155.7 878.5 153.8L900 152L900 0L878.5 0C857 0 814 0 771.2 0C728.3 0 685.7 0 642.8 0C600 0 557 0 514.2 0C471.3 0 428.7 0 385.8 0C343 0 300 0 257.2 0C214.3 0 171.7 0 128.8 0C86 0 43 0 21.5 0L0 0Z" fill="#ffeff7"></path><path d="M0 193L21.5 194C43 195 86 197 128.8 193.3C171.7 189.7 214.3 180.3 257.2 172.8C300 165.3 343 159.7 385.8 160.2C428.7 160.7 471.3 167.3 514.2 168.7C557 170 600 166 642.8 158.7C685.7 151.3 728.3 140.7 771.2 142.2C814 143.7 857 157.3 878.5 164.2L900 171L900 0L878.5 0C857 0 814 0 771.2 0C728.3 0 685.7 0 642.8 0C600 0 557 0 514.2 0C471.3 0 428.7 0 385.8 0C343 0 300 0 257.2 0C214.3 0 171.7 0 128.8 0C86 0 43 0 21.5 0L0 0Z" fill="#ffdff0"></path><path d="M0 150L21.5 151.5C43 153 86 156 128.8 150.2C171.7 144.3 214.3 129.7 257.2 129.3C300 129 343 143 385.8 145.2C428.7 147.3 471.3 137.7 514.2 139C557 140.3 600 152.7 642.8 144.5C685.7 136.3 728.3 107.7 771.2 105.7C814 103.7 857 128.3 878.5 140.7L900 153L900 0L878.5 0C857 0 814 0 771.2 0C728.3 0 685.7 0 642.8 0C600 0 557 0 514.2 0C471.3 0 428.7 0 385.8 0C343 0 300 0 257.2 0C214.3 0 171.7 0 128.8 0C86 0 43 0 21.5 0L0 0Z" fill="#fecfe8"></path><path d="M0 113L21.5 103.2C43 93.3 86 73.7 128.8 66.7C171.7 59.7 214.3 65.3 257.2 77C300 88.7 343 106.3 385.8 113.5C428.7 120.7 471.3 117.3 514.2 116.5C557 115.7 600 117.3 642.8 109.8C685.7 102.3 728.3 85.7 771.2 77.2C814 68.7 857 68.3 878.5 68.2L900 68L900 0L878.5 0C857 0 814 0 771.2 0C728.3 0 685.7 0 642.8 0C600 0 557 0 514.2 0C471.3 0 428.7 0 385.8 0C343 0 300 0 257.2 0C214.3 0 171.7 0 128.8 0C86 0 43 0 21.5 0L0 0Z" fill="#fdbfe1"></path><path d="M0 86L21.5 84.3C43 82.7 86 79.3 128.8 73.5C171.7 67.7 214.3 59.3 257.2 57.7C300 56 343 61 385.8 66.3C428.7 71.7 471.3 77.3 514.2 73.2C557 69 600 55 642.8 52.8C685.7 50.7 728.3 60.3 771.2 67.3C814 74.3 857 78.7 878.5 80.8L900 83L900 0L878.5 0C857 0 814 0 771.2 0C728.3 0 685.7 0 642.8 0C600 0 557 0 514.2 0C471.3 0 428.7 0 385.8 0C343 0 300 0 257.2 0C214.3 0 171.7 0 128.8 0C86 0 43 0 21.5 0L0 0Z" fill="#fbafd9"></path><path d="M0 29L21.5 31.5C43 34 86 39 128.8 36.5C171.7 34 214.3 24 257.2 26.7C300 29.3 343 44.7 385.8 49.3C428.7 54 471.3 48 514.2 40.5C557 33 600 24 642.8 26.7C685.7 29.3 728.3 43.7 771.2 43.2C814 42.7 857 27.3 878.5 19.7L900 12L900 0L878.5 0C857 0 814 0 771.2 0C728.3 0 685.7 0 642.8 0C600 0 557 0 514.2 0C471.3 0 428.7 0 385.8 0C343 0 300 0 257.2 0C214.3 0 171.7 0 128.8 0C86 0 43 0 21.5 0L0 0Z" fill="#f99ed2"></path></svg>