<svg width="36" height="39" viewBox="0 0 36 39" fill="none" xmlns="http://www.w3.org/2000/svg">
<path d="M35.2 38.4C34.4384 38.4 33.6928 38.224 33.036 37.9224C32.3371 37.5919 31.5739 37.4198 30.8008 37.4184C30.012 37.4184 29.2504 37.604 28.576 37.9224C27.8934 38.2344 27.1521 38.3972 26.4016 38.4C25.6384 38.4 24.8944 38.224 24.2352 37.9224C23.5369 37.5919 22.7742 37.4198 22.0016 37.4184C21.2309 37.4208 20.4703 37.5928 19.7736 37.9224C19.0928 38.2346 18.353 38.3974 17.604 38.4C16.8328 38.4 16.0968 38.224 15.4344 37.9224C14.7372 37.5927 13.976 37.4206 13.2048 37.4184C12.4072 37.4184 11.644 37.604 10.9696 37.9224C10.2888 38.2355 9.54856 38.3984 8.7992 38.4C8.0328 38.4 7.292 38.224 6.6312 37.9224C5.9335 37.5926 5.17172 37.4205 4.4 37.4184C3.6064 37.4184 2.844 37.604 2.1688 37.9224C1.48843 38.2351 0.7488 38.398 0 38.4V35.1184C0.7712 35.1184 1.5072 34.9424 2.1688 34.6408C2.86839 34.3176 3.62935 34.1487 4.4 34.1456C5.17063 34.1488 5.93156 34.3177 6.6312 34.6408C7.31146 34.953 8.05072 35.1159 8.7992 35.1184C9.5712 35.1184 10.3112 34.9424 10.9688 34.6408C11.6696 34.317 12.432 34.1481 13.204 34.1456C13.996 34.1456 14.7592 34.3312 15.4336 34.6408C16.1143 34.9534 16.8542 35.1162 17.6032 35.1184C18.3696 35.1184 19.1104 34.9424 19.7728 34.6408C20.4715 34.3181 21.2312 34.1493 22.0008 34.1456C22.7984 34.1456 23.5616 34.3312 24.2344 34.6408C24.9141 34.9529 25.6528 35.1158 26.4008 35.1184C27.1704 35.1184 27.908 34.9424 28.5752 34.6408C29.2727 34.318 30.0315 34.1491 30.8 34.1456C31.5992 34.1456 32.3608 34.3312 33.0352 34.6408C33.714 34.953 34.452 35.1159 35.1992 35.1184V38.4H35.2ZM20.8 0V24.8H1.0296L20.8 0ZM23.2 5.6952C23.2 8.464 35.8776 16 34.9544 24.8H23.2V5.6952ZM32.4216 26.4H5.6V31.36C6.4 31.44 6.2768 31.5288 6.5496 31.6616C7.24661 31.9664 7.99849 32.1256 8.7592 32.1296C9.5312 32.1296 10.292 31.9536 10.9496 31.6616C11.6521 31.3309 12.4188 31.1588 13.1952 31.1576C13.9872 31.1576 14.7552 31.3424 15.4296 31.6616C16.1133 31.9666 16.853 32.126 17.6016 32.1296C18.368 32.1296 19.1096 31.9536 19.772 31.6616C20.4689 31.332 21.2299 31.16 22.0008 31.1576C22.7737 31.1582 23.5369 31.3304 24.2352 31.6616C24.9171 31.9662 25.6548 32.1255 26.4016 32.1296C26.5512 32.1296 26.6896 32.0944 26.8304 32.0768L26.8664 32.0944L27.1288 32.0504C27.304 32.024 27.4784 32.0056 27.6544 31.9624C29.2304 31.6352 30.2496 30.3576 30.2496 30.3576L33.3176 26.4H32.4216Z" fill="black"/>
</svg>
