<svg id="visual" viewBox="0 0 900 600" width="900" height="600" xmlns="http://www.w3.org/2000/svg" xmlns:xlink="http://www.w3.org/1999/xlink" version="1.1"><rect x="0" y="0" width="900" height="600" fill="#ffffff"></rect><path d="M0 108L21.5 107C43 106 86 104 128.8 109.3C171.7 114.7 214.3 127.3 257.2 135.5C300 143.7 343 147.3 385.8 140.3C428.7 133.3 471.3 115.7 514.2 99.5C557 83.3 600 68.7 642.8 66.8C685.7 65 728.3 76 771.2 77.8C814 79.7 857 72.3 878.5 68.7L900 65L900 0L878.5 0C857 0 814 0 771.2 0C728.3 0 685.7 0 642.8 0C600 0 557 0 514.2 0C471.3 0 428.7 0 385.8 0C343 0 300 0 257.2 0C214.3 0 171.7 0 128.8 0C86 0 43 0 21.5 0L0 0Z" fill="#ffffff"></path><path d="M0 77L21.5 78.2C43 79.3 86 81.7 128.8 76.2C171.7 70.7 214.3 57.3 257.2 51C300 44.7 343 45.3 385.8 52.8C428.7 60.3 471.3 74.7 514.2 72.5C557 70.3 600 51.7 642.8 40.8C685.7 30 728.3 27 771.2 36.5C814 46 857 68 878.5 79L900 90L900 0L878.5 0C857 0 814 0 771.2 0C728.3 0 685.7 0 642.8 0C600 0 557 0 514.2 0C471.3 0 428.7 0 385.8 0C343 0 300 0 257.2 0C214.3 0 171.7 0 128.8 0C86 0 43 0 21.5 0L0 0Z" fill="#be94ff"></path></svg>